<svg xmlns="http://www.w3.org/2000/svg" width="900" height="420" viewBox="0 0 900 420" role="img">
  <rect width="900" height="420" fill="#0d1526"/>
  <text x="64" y="18" fill="#eaf2ff" font-size="14" font-family="Segoe UI, sans-serif">Cortex-M3 firmware watchdog demo (191 frames, 0 bad, 2 watchdog resets)</text>
  <text x="876" y="18" fill="#8fa6c4" font-size="11" text-anchor="end" font-family="Segoe UI, sans-serif">watchdog-frames.ehraw · 191 samples</text>
  <line x1="64" y1="28.0" x2="876" y2="28.0" stroke="#26354d" stroke-width="1"/><text x="54" y="32.0" fill="#8fa6c4" font-size="11" text-anchor="end">100%</text><line x1="64" y1="115.5" x2="876" y2="115.5" stroke="#26354d" stroke-width="1"/><text x="54" y="119.5" fill="#8fa6c4" font-size="11" text-anchor="end">75%</text><line x1="64" y1="203.0" x2="876" y2="203.0" stroke="#26354d" stroke-width="1"/><text x="54" y="207.0" fill="#8fa6c4" font-size="11" text-anchor="end">50%</text><line x1="64" y1="290.5" x2="876" y2="290.5" stroke="#26354d" stroke-width="1"/><text x="54" y="294.5" fill="#8fa6c4" font-size="11" text-anchor="end">25%</text><line x1="64" y1="378.0" x2="876" y2="378.0" stroke="#26354d" stroke-width="1"/><text x="54" y="382.0" fill="#8fa6c4" font-size="11" text-anchor="end">0%</text>
  <line x1="64" y1="39.4" x2="876" y2="39.4" stroke="#f6c453" stroke-width="1" stroke-dasharray="6 4"/>
  <text x="876" y="33.4" fill="#f6c453" font-size="11" text-anchor="end" font-family="Segoe UI, sans-serif">temperature limit 80.00 C</text>
  <polyline points="64.0,115.6 68.3,111.8 72.5,108.0 76.8,104.2 81.1,100.4 85.4,96.6 89.6,92.8 93.9,88.9 98.2,85.1 102.5,81.3 106.7,77.5 111.0,73.7 115.3,69.9 119.6,66.1 123.8,62.3 128.1,58.5 132.4,54.7 136.7,50.9 140.9,47.0 145.2,43.2 149.5,39.4 153.7,35.6 158.0,31.8 162.3,28.0 166.6,115.6 170.8,111.8 175.1,108.0 179.4,104.2 183.7,100.4 187.9,96.6 192.2,92.8 196.5,88.9 200.8,85.1 205.0,81.3 209.3,77.5 213.6,73.7 217.9,69.9 222.1,66.1 226.4,62.3 230.7,58.5 234.9,54.7 239.2,50.9 243.5,47.0 247.8,43.2 252.0,39.4 256.3,35.6 260.6,31.8 264.9,28.0 269.1,115.6 273.4,111.8 277.7,108.0 282.0,104.2 286.2,100.4 290.5,96.6 294.8,92.8 299.1,88.9 303.3,85.1 307.6,81.3 311.9,77.5 316.1,73.7 320.4,69.9 324.7,66.1 329.0,62.3 333.2,58.5 337.5,54.7 341.8,50.9 346.1,47.0 350.3,43.2 354.6,39.4 358.9,35.6 363.2,31.8 367.4,28.0 371.7,115.6 376.0,111.8 380.3,108.0 384.5,104.2 388.8,100.4 393.1,96.6 397.3,92.8 401.6,88.9 405.9,115.6 410.2,111.8 414.4,108.0 418.7,104.2 423.0,100.4 427.3,96.6 431.5,92.8 435.8,88.9 440.1,85.1 444.4,81.3 448.6,77.5 452.9,73.7 457.2,69.9 461.5,66.1 465.7,62.3 470.0,58.5 474.3,54.7 478.5,50.9 482.8,47.0 487.1,43.2 491.4,39.4 495.6,35.6 499.9,31.8 504.2,28.0 508.5,115.6 512.7,111.8 517.0,108.0 521.3,104.2 525.6,100.4 529.8,96.6 534.1,92.8 538.4,88.9 542.7,85.1 546.9,81.3 551.2,77.5 555.5,73.7 559.7,69.9 564.0,66.1 568.3,62.3 572.6,58.5 576.8,54.7 581.1,50.9 585.4,47.0 589.7,43.2 593.9,39.4 598.2,35.6 602.5,31.8 606.8,28.0 611.0,115.6 615.3,111.8 619.6,108.0 623.9,104.2 628.1,100.4 632.4,96.6 636.7,92.8 640.9,88.9 645.2,85.1 649.5,81.3 653.8,77.5 658.0,73.7 662.3,69.9 666.6,66.1 670.9,62.3 675.1,58.5 679.4,54.7 683.7,50.9 688.0,47.0 692.2,43.2 696.5,39.4 700.8,35.6 705.1,31.8 709.3,28.0 713.6,115.6 717.9,111.8 722.1,108.0 726.4,104.2 730.7,100.4 735.0,96.6 739.2,92.8 743.5,88.9 747.8,115.6 752.1,111.8 756.3,108.0 760.6,104.2 764.9,100.4 769.2,96.6 773.4,92.8 777.7,88.9 782.0,85.1 786.3,81.3 790.5,77.5 794.8,73.7 799.1,69.9 803.3,66.1 807.6,62.3 811.9,58.5 816.2,54.7 820.4,50.9 824.7,47.0 829.0,43.2 833.3,39.4 837.5,35.6 841.8,31.8 846.1,28.0 850.4,115.6 854.6,111.8 858.9,108.0 863.2,104.2 867.5,100.4 871.7,96.6 876.0,92.8" fill="none" stroke="#3dd6c6" stroke-width="2"/>
  <polyline points="64.0,274.1 68.3,274.1 72.5,274.1 76.8,274.1 81.1,274.1 85.4,274.1 89.6,274.1 93.9,274.1 98.2,274.1 102.5,274.1 106.7,274.1 111.0,274.1 115.3,274.1 119.6,274.1 123.8,28.0 128.1,274.1 132.4,274.1 136.7,274.1 140.9,274.1 145.2,274.1 149.5,274.1 153.7,274.1 158.0,274.1 162.3,274.1 166.6,274.1 170.8,274.1 175.1,274.1 179.4,274.1 183.7,274.1 187.9,28.0 192.2,274.1 196.5,274.1 200.8,274.1 205.0,274.1 209.3,274.1 213.6,274.1 217.9,274.1 222.1,274.1 226.4,274.1 230.7,274.1 234.9,274.1 239.2,274.1 243.5,274.1 247.8,274.1 252.0,28.0 256.3,274.1 260.6,274.1 264.9,274.1 269.1,274.1 273.4,274.1 277.7,274.1 282.0,274.1 286.2,274.1 290.5,274.1 294.8,274.1 299.1,274.1 303.3,274.1 307.6,274.1 311.9,274.1 316.1,28.0 320.4,274.1 324.7,274.1 329.0,274.1 333.2,274.1 337.5,274.1 341.8,274.1 346.1,274.1 350.3,274.1 354.6,274.1 358.9,274.1 363.2,274.1 367.4,274.1 371.7,274.1 376.0,274.1 380.3,28.0 384.5,274.1 388.8,274.1 393.1,274.1 397.3,274.1 401.6,274.1 405.9,274.1 410.2,274.1 414.4,274.1 418.7,274.1 423.0,274.1 427.3,274.1 431.5,274.1 435.8,274.1 440.1,274.1 444.4,274.1 448.6,274.1 452.9,274.1 457.2,274.1 461.5,274.1 465.7,28.0 470.0,274.1 474.3,274.1 478.5,274.1 482.8,274.1 487.1,274.1 491.4,274.1 495.6,274.1 499.9,274.1 504.2,274.1 508.5,274.1 512.7,274.1 517.0,274.1 521.3,274.1 525.6,274.1 529.8,28.0 534.1,274.1 538.4,274.1 542.7,274.1 546.9,274.1 551.2,274.1 555.5,274.1 559.7,274.1 564.0,274.1 568.3,274.1 572.6,274.1 576.8,274.1 581.1,274.1 585.4,274.1 589.7,274.1 593.9,28.0 598.2,274.1 602.5,274.1 606.8,274.1 611.0,274.1 615.3,274.1 619.6,274.1 623.9,274.1 628.1,274.1 632.4,274.1 636.7,274.1 640.9,274.1 645.2,274.1 649.5,274.1 653.8,274.1 658.0,28.0 662.3,274.1 666.6,274.1 670.9,274.1 675.1,274.1 679.4,274.1 683.7,274.1 688.0,274.1 692.2,274.1 696.5,274.1 700.8,274.1 705.1,274.1 709.3,274.1 713.6,274.1 717.9,274.1 722.1,28.0 726.4,274.1 730.7,274.1 735.0,274.1 739.2,274.1 743.5,274.1 747.8,274.1 752.1,274.1 756.3,274.1 760.6,274.1 764.9,274.1 769.2,274.1 773.4,274.1 777.7,274.1 782.0,274.1 786.3,274.1 790.5,274.1 794.8,274.1 799.1,274.1 803.3,274.1 807.6,28.0 811.9,274.1 816.2,274.1 820.4,274.1 824.7,274.1 829.0,274.1 833.3,274.1 837.5,274.1 841.8,274.1 846.1,274.1 850.4,274.1 854.6,274.1 858.9,274.1 863.2,274.1 867.5,274.1 871.7,28.0 876.0,274.1" fill="none" stroke="#7aa2ff" stroke-width="1.5" opacity="0.85"/>
  <polyline points="64.0,330.3 68.3,330.3 72.5,330.3 76.8,330.3 81.1,330.3 85.4,330.3 89.6,330.3 93.9,330.3 98.2,330.3 102.5,330.3 106.7,330.3 111.0,330.3 115.3,330.3 119.6,330.3 123.8,330.3 128.1,330.3 132.4,330.3 136.7,28.0 140.9,330.3 145.2,330.3 149.5,330.3 153.7,330.3 158.0,330.3 162.3,330.3 166.6,330.3 170.8,330.3 175.1,330.3 179.4,330.3 183.7,330.3 187.9,330.3 192.2,330.3 196.5,330.3 200.8,330.3 205.0,330.3 209.3,330.3 213.6,28.0 217.9,330.3 222.1,330.3 226.4,330.3 230.7,330.3 234.9,330.3 239.2,330.3 243.5,330.3 247.8,330.3 252.0,330.3 256.3,330.3 260.6,330.3 264.9,330.3 269.1,330.3 273.4,330.3 277.7,330.3 282.0,330.3 286.2,330.3 290.5,28.0 294.8,330.3 299.1,330.3 303.3,330.3 307.6,330.3 311.9,330.3 316.1,330.3 320.4,330.3 324.7,330.3 329.0,330.3 333.2,330.3 337.5,330.3 341.8,330.3 346.1,330.3 350.3,330.3 354.6,330.3 358.9,330.3 363.2,330.3 367.4,28.0 371.7,330.3 376.0,330.3 380.3,330.3 384.5,330.3 388.8,330.3 393.1,330.3 397.3,330.3 401.6,330.3 405.9,330.3 410.2,330.3 414.4,330.3 418.7,330.3 423.0,330.3 427.3,330.3 431.5,330.3 435.8,330.3 440.1,330.3 444.4,330.3 448.6,330.3 452.9,330.3 457.2,330.3 461.5,330.3 465.7,330.3 470.0,330.3 474.3,330.3 478.5,28.0 482.8,330.3 487.1,330.3 491.4,330.3 495.6,330.3 499.9,330.3 504.2,330.3 508.5,330.3 512.7,330.3 517.0,330.3 521.3,330.3 525.6,330.3 529.8,330.3 534.1,330.3 538.4,330.3 542.7,330.3 546.9,330.3 551.2,330.3 555.5,28.0 559.7,330.3 564.0,330.3 568.3,330.3 572.6,330.3 576.8,330.3 581.1,330.3 585.4,330.3 589.7,330.3 593.9,330.3 598.2,330.3 602.5,330.3 606.8,330.3 611.0,330.3 615.3,330.3 619.6,330.3 623.9,330.3 628.1,330.3 632.4,28.0 636.7,330.3 640.9,330.3 645.2,330.3 649.5,330.3 653.8,330.3 658.0,330.3 662.3,330.3 666.6,330.3 670.9,330.3 675.1,330.3 679.4,330.3 683.7,330.3 688.0,330.3 692.2,330.3 696.5,330.3 700.8,330.3 705.1,330.3 709.3,28.0 713.6,330.3 717.9,330.3 722.1,330.3 726.4,330.3 730.7,330.3 735.0,330.3 739.2,330.3 743.5,330.3 747.8,330.3 752.1,330.3 756.3,330.3 760.6,330.3 764.9,330.3 769.2,330.3 773.4,330.3 777.7,330.3 782.0,330.3 786.3,330.3 790.5,330.3 794.8,330.3 799.1,330.3 803.3,330.3 807.6,330.3 811.9,330.3 816.2,330.3 820.4,28.0 824.7,330.3 829.0,330.3 833.3,330.3 837.5,330.3 841.8,330.3 846.1,330.3 850.4,330.3 854.6,330.3 858.9,330.3 863.2,330.3 867.5,330.3 871.7,330.3 876.0,330.3" fill="none" stroke="#fb7185" stroke-width="1.5" opacity="0.85"/>
  <g font-family="Segoe UI, sans-serif" font-size="12">
    <rect x="64" y="390" width="10" height="10" fill="#3dd6c6"/>
    <text x="80" y="399" fill="#c9d8ee">temperature (62.0 - 82.7 C)</text>
    <rect x="324" y="390" width="10" height="10" fill="#7aa2ff"/>
    <text x="340" y="399" fill="#c9d8ee">current (max 3100 mA)</text>
    <rect x="564" y="390" width="10" height="10" fill="#fb7185"/>
    <text x="580" y="399" fill="#c9d8ee">vibration (max 880 mg)</text>
  </g>
</svg>
